<svg width="900" height="600" viewBox="0 0 900 600" xmlns="http://www.w3.org/2000/svg" role="img" aria-labelledby="title desc">
<title id="title">Illustrated John Zarcaro crypto educator avatar</title>
<desc id="desc">Polished animated style portrait of John Zarcaro with a gold ring, purple glow, suit and subtle Bitcoin background.</desc>
<defs>
  <radialGradient id="bg" cx="72%" cy="14%" r="82%"><stop offset="0" stop-color="#35106b"/><stop offset="0.42" stop-color="#140622"/><stop offset="1" stop-color="#030205"/></radialGradient>
  <radialGradient id="glow" cx="42%" cy="44%" r="48%"><stop offset="0" stop-color="#a855f7" stop-opacity="0.48"/><stop offset="0.62" stop-color="#6d28d9" stop-opacity="0.16"/><stop offset="1" stop-color="#000" stop-opacity="0"/></radialGradient>
  <linearGradient id="gold" x1="0" x2="1" y1="0" y2="1"><stop offset="0" stop-color="#fff1a8"/><stop offset="0.35" stop-color="#f6c85f"/><stop offset="0.72" stop-color="#d4962e"/><stop offset="1" stop-color="#fff2a8"/></linearGradient>
  <linearGradient id="skin" x1="0" x2="1" y1="0" y2="1"><stop offset="0" stop-color="#ffd0a2"/><stop offset="0.52" stop-color="#f2a16e"/><stop offset="1" stop-color="#cb7447"/></linearGradient>
  <linearGradient id="skinSoft" x1="0" x2="0" y1="0" y2="1"><stop offset="0" stop-color="#ffd7ad"/><stop offset="1" stop-color="#e9925f"/></linearGradient>
  <linearGradient id="hair" x1="0" x2="1"><stop offset="0" stop-color="#25110a"/><stop offset="0.55" stop-color="#5a2a10"/><stop offset="1" stop-color="#1b0b06"/></linearGradient>
  <linearGradient id="suit" x1="0" x2="1" y1="0" y2="1"><stop offset="0" stop-color="#20283c"/><stop offset="0.54" stop-color="#080b16"/><stop offset="1" stop-color="#02040a"/></linearGradient>
  <linearGradient id="shirt" x1="0" x2="0" y1="0" y2="1"><stop offset="0" stop-color="#ffffff"/><stop offset="1" stop-color="#d7ddea"/></linearGradient>
  <filter id="softShadow" x="-40%" y="-40%" width="180%" height="180%"><feDropShadow dx="0" dy="22" stdDeviation="22" flood-color="#000" flood-opacity="0.42"/><feDropShadow dx="0" dy="0" stdDeviation="18" flood-color="#a855f7" flood-opacity="0.36"/></filter>
  <filter id="ringGlow" x="-40%" y="-40%" width="180%" height="180%"><feDropShadow dx="0" dy="0" stdDeviation="13" flood-color="#a855f7" flood-opacity="0.55"/><feDropShadow dx="0" dy="0" stdDeviation="9" flood-color="#f6c85f" flood-opacity="0.28"/></filter>
  <clipPath id="portraitClip"><circle cx="415" cy="275" r="196"/></clipPath>
</defs>
<rect width="900" height="600" fill="url(#bg)"/>
<rect width="900" height="600" fill="url(#glow)"/>
<g opacity="0.33" transform="translate(560 155)">
  <circle cx="125" cy="180" r="205" fill="none" stroke="#a855f7" stroke-width="2"/>
  <circle cx="125" cy="180" r="165" fill="none" stroke="#a855f7" stroke-width="2" stroke-dasharray="8 12"/>
  <circle cx="125" cy="180" r="105" fill="none" stroke="#a855f7" stroke-width="1"/>
  <text x="-5" y="320" font-family="Inter, Arial, sans-serif" font-size="250" font-weight="900" fill="#a855f7" opacity="0.43">₿</text>
</g>
<g filter="url(#softShadow)">
  <path d="M230 600 C238 492 284 443 360 425 L414 503 L468 425 C548 443 599 493 614 600 Z" fill="url(#suit)"/>
  <path d="M360 424 L415 500 L470 424 L502 600 L322 600 Z" fill="url(#shirt)"/>
  <path d="M389 480 L414 506 L439 480 L432 600 L397 600 Z" fill="#070912"/>
  <path d="M361 424 L414 505 L349 472 Z" fill="#eef2fb" opacity="0.96"/>
  <path d="M468 424 L414 505 L482 472 Z" fill="#eef2fb" opacity="0.96"/>
  <path d="M238 600 C250 498 300 451 361 424 L312 600 Z" fill="#141a2a" opacity="0.8"/>
  <path d="M590 600 C580 498 529 451 468 424 L520 600 Z" fill="#070912" opacity="0.95"/>
</g>
<circle cx="415" cy="275" r="207" fill="none" stroke="#07050e" stroke-width="26"/>
<circle cx="415" cy="275" r="218" fill="none" stroke="url(#gold)" stroke-width="12" filter="url(#ringGlow)"/>
<g clip-path="url(#portraitClip)">
  <rect x="198" y="58" width="434" height="434" fill="#1b0b31"/>
  <circle cx="412" cy="282" r="235" fill="url(#glow)" opacity="0.72"/>
  <path d="M381 386 C382 425 398 455 417 455 C436 455 450 424 451 386 Z" fill="url(#skinSoft)"/>
  <ellipse cx="415" cy="268" rx="110" ry="135" fill="url(#skin)"/>
  <ellipse cx="310" cy="273" rx="22" ry="33" fill="#e79463"/>
  <ellipse cx="520" cy="273" rx="22" ry="33" fill="#d98758"/>
  <ellipse cx="365" cy="287" rx="28" ry="17" fill="#f6b182" opacity="0.45"/>
  <ellipse cx="465" cy="287" rx="28" ry="17" fill="#f6b182" opacity="0.45"/>
  <path d="M354 235 C374 222 394 223 408 237" fill="none" stroke="#65310f" stroke-width="7" stroke-linecap="round"/>
  <path d="M437 237 C453 224 477 224 493 238" fill="none" stroke="#65310f" stroke-width="7" stroke-linecap="round"/>
  <ellipse cx="381" cy="260" rx="17" ry="9" fill="#fff4e7" opacity="0.95"/>
  <ellipse cx="462" cy="260" rx="17" ry="9" fill="#fff4e7" opacity="0.95"/>
  <circle cx="382" cy="260" r="6" fill="#687b62"/>
  <circle cx="462" cy="260" r="6" fill="#687b62"/>
  <circle cx="384" cy="258" r="2" fill="#fff"/>
  <circle cx="464" cy="258" r="2" fill="#fff"/>
  <path d="M419 263 C413 291 402 314 421 318" fill="none" stroke="#cf7b52" stroke-width="5" stroke-linecap="round"/>
  <path d="M374 348 C398 368 441 368 472 344" fill="none" stroke="#7a2e24" stroke-width="7" stroke-linecap="round"/>
  <path d="M386 348 C410 358 438 356 461 344" fill="none" stroke="#ffd1c0" stroke-width="3" stroke-linecap="round" opacity="0.72"/>
  <path d="M308 201 C321 112 402 79 480 104 C541 123 563 187 542 244 C526 205 495 181 454 174 C404 165 355 181 308 201 Z" fill="url(#hair)"/>
  <path d="M319 203 C337 155 376 126 426 123 C393 139 374 167 368 205 C353 178 338 181 319 203 Z" fill="#3d1c0c" opacity="0.85"/>
  <path d="M360 122 C386 91 431 89 463 111 C424 106 394 118 371 146 Z" fill="#7a3d14" opacity="0.8"/>
  <path d="M431 114 C473 98 518 126 537 170 C498 142 469 131 431 114 Z" fill="#4e220c" opacity="0.9"/>
  <path d="M300 223 C320 171 351 142 400 134" fill="none" stroke="#6f3511" stroke-width="14" stroke-linecap="round" opacity="0.9"/>
  <path d="M339 151 C373 108 424 100 472 119" fill="none" stroke="#2b1208" stroke-width="12" stroke-linecap="round" opacity="0.9"/>
  <path d="M388 117 C421 92 472 103 502 136" fill="none" stroke="#7d4016" stroke-width="10" stroke-linecap="round" opacity="0.85"/>
  <path d="M320 426 C349 463 385 482 418 482 C451 482 486 462 513 424 L535 492 L292 492 Z" fill="#15091f" opacity="0.25"/>
</g>
<circle cx="415" cy="275" r="196" fill="none" stroke="#0a0610" stroke-width="5" opacity="0.75"/>
<circle cx="415" cy="275" r="218" fill="none" stroke="url(#gold)" stroke-width="8" opacity="0.98"/>
</svg>
