<svg width="280" height="280" viewBox="0 0 280 280" xmlns="http://www.w3.org/2000/svg" role="img" aria-labelledby="title desc">
<title id="title">Illustrated John Zarcaro face portrait</title>
<desc id="desc">Crisp animated style face portrait of John Zarcaro inside a gold crypto-themed circle.</desc>
<defs>
  <radialGradient id="bg" cx="50%" cy="45%" r="65%"><stop offset="0" stop-color="#3b116d"/><stop offset="1" stop-color="#090411"/></radialGradient>
  <linearGradient id="gold" x1="0" x2="1"><stop offset="0" stop-color="#fff1a8"/><stop offset="0.5" stop-color="#f6c85f"/><stop offset="1" stop-color="#b77915"/></linearGradient>
  <linearGradient id="skin" x1="0" x2="1" y1="0" y2="1"><stop offset="0" stop-color="#ffd0a2"/><stop offset="0.55" stop-color="#f0a06c"/><stop offset="1" stop-color="#cb7447"/></linearGradient>
  <linearGradient id="hair" x1="0" x2="1"><stop offset="0" stop-color="#241008"/><stop offset="0.5" stop-color="#653010"/><stop offset="1" stop-color="#1b0b06"/></linearGradient>
  <filter id="glow" x="-30%" y="-30%" width="160%" height="160%"><feDropShadow dx="0" dy="0" stdDeviation="10" flood-color="#a855f7" flood-opacity="0.68"/></filter>
  <clipPath id="clip"><circle cx="140" cy="140" r="124"/></clipPath>
</defs>
<circle cx="140" cy="140" r="132" fill="#050408"/>
<circle cx="140" cy="140" r="128" fill="url(#bg)" filter="url(#glow)"/>
<g clip-path="url(#clip)">
  <rect width="280" height="280" fill="url(#bg)"/>
  <path d="M90 280 C96 222 116 195 139 190 C164 195 185 222 191 280 Z" fill="#070912"/>
  <path d="M118 193 L139 232 L162 193 L170 280 L108 280 Z" fill="#f3f6fb"/>
  <path d="M130 226 L140 238 L151 226 L148 280 L132 280 Z" fill="#05060a"/>
  <path d="M126 173 C127 196 133 212 141 212 C149 212 154 196 155 173 Z" fill="#e9925f"/>
  <ellipse cx="140" cy="118" rx="52" ry="64" fill="url(#skin)"/>
  <ellipse cx="89" cy="121" rx="11" ry="17" fill="#e99666"/>
  <ellipse cx="191" cy="121" rx="11" ry="17" fill="#d98758"/>
  <path d="M99 87 C111 45 153 30 187 59 C207 76 211 111 200 133 C190 111 174 98 151 94 C127 89 107 94 99 87 Z" fill="url(#hair)"/>
  <path d="M99 90 C110 60 135 48 163 51" fill="none" stroke="#6f3511" stroke-width="10" stroke-linecap="round" opacity="0.9"/>
  <path d="M121 57 C141 37 170 42 188 62" fill="none" stroke="#2b1208" stroke-width="9" stroke-linecap="round" opacity="0.92"/>
  <path d="M104 103 C115 97 126 98 133 105" fill="none" stroke="#65310f" stroke-width="4" stroke-linecap="round"/>
  <path d="M150 105 C159 97 173 98 181 106" fill="none" stroke="#65310f" stroke-width="4" stroke-linecap="round"/>
  <ellipse cx="120" cy="117" rx="8" ry="5" fill="#fff4e7"/>
  <ellipse cx="166" cy="117" rx="8" ry="5" fill="#fff4e7"/>
  <circle cx="120" cy="117" r="3" fill="#687b62"/>
  <circle cx="166" cy="117" r="3" fill="#687b62"/>
  <path d="M142 119 C138 134 134 147 143 150" fill="none" stroke="#c97750" stroke-width="3" stroke-linecap="round"/>
  <path d="M119 166 C132 177 157 177 174 163" fill="none" stroke="#7a2e24" stroke-width="4" stroke-linecap="round"/>
  <path d="M126 166 C139 171 155 170 168 163" fill="none" stroke="#ffd1c0" stroke-width="2" stroke-linecap="round" opacity="0.75"/>
</g>
<circle cx="140" cy="140" r="126" fill="none" stroke="#06030a" stroke-width="8"/>
<circle cx="140" cy="140" r="132" fill="none" stroke="url(#gold)" stroke-width="8"/>
</svg>
