<svg width="620" height="760" viewBox="0 0 620 760" fill="none" xmlns="http://www.w3.org/2000/svg" role="img" aria-labelledby="title desc">
  <title id="title">John Zarcaro animated professional crypto educator portrait</title>
  <desc id="desc">A stylized front-facing professional portrait avatar of John Zarcaro wearing a navy suit against a purple and gold crypto background.</desc>
  <defs>
    <radialGradient id="bgGlow" cx="0" cy="0" r="1" gradientUnits="userSpaceOnUse" gradientTransform="translate(310 360) rotate(90) scale(360 280)">
      <stop stop-color="#6D28D9" stop-opacity="0.38"/>
      <stop offset="0.55" stop-color="#160825" stop-opacity="0.92"/>
      <stop offset="1" stop-color="#050408"/>
    </radialGradient>
    <linearGradient id="suit" x1="110" y1="395" x2="510" y2="760" gradientUnits="userSpaceOnUse">
      <stop stop-color="#222C46"/>
      <stop offset="0.45" stop-color="#0E1428"/>
      <stop offset="1" stop-color="#050814"/>
    </linearGradient>
    <linearGradient id="skin" x1="225" y1="145" x2="410" y2="372" gradientUnits="userSpaceOnUse">
      <stop stop-color="#F3C9AD"/>
      <stop offset="0.62" stop-color="#E7A884"/>
      <stop offset="1" stop-color="#C88568"/>
    </linearGradient>
    <linearGradient id="hair" x1="205" y1="115" x2="400" y2="235" gradientUnits="userSpaceOnUse">
      <stop stop-color="#5B351F"/>
      <stop offset="0.55" stop-color="#2B1A12"/>
      <stop offset="1" stop-color="#120C08"/>
    </linearGradient>
    <linearGradient id="gold" x1="0" y1="0" x2="1" y2="1">
      <stop stop-color="#FFF2B5"/>
      <stop offset="0.45" stop-color="#F6C85F"/>
      <stop offset="1" stop-color="#B77915"/>
    </linearGradient>
    <filter id="shadow" x="-20%" y="-20%" width="140%" height="150%">
      <feDropShadow dx="0" dy="26" stdDeviation="28" flood-color="#000000" flood-opacity="0.55"/>
    </filter>
    <filter id="purpleGlow" x="-40%" y="-40%" width="180%" height="180%">
      <feDropShadow dx="0" dy="0" stdDeviation="12" flood-color="#A855F7" flood-opacity="0.65"/>
    </filter>
  </defs>

  <rect width="620" height="760" rx="34" fill="url(#bgGlow)"/>
  <rect x="18" y="18" width="584" height="724" rx="28" stroke="#A855F7" stroke-opacity="0.35" stroke-width="2"/>
  <g opacity="0.42">
    <path d="M70 175L160 92L255 190L360 90L520 230" stroke="#A855F7" stroke-width="3" stroke-linecap="round" stroke-linejoin="round"/>
    <path d="M58 548C170 468 282 512 396 448C456 414 508 402 562 392" stroke="#F6C85F" stroke-opacity="0.38" stroke-width="3" stroke-linecap="round"/>
    <circle cx="160" cy="92" r="6" fill="#F6C85F"/>
    <circle cx="255" cy="190" r="6" fill="#A855F7"/>
    <circle cx="360" cy="90" r="6" fill="#F6C85F"/>
  </g>
  <g opacity="0.55">
    <rect x="88" y="328" width="14" height="78" rx="7" fill="#A855F7"><animate attributeName="opacity" values=".25;.8;.25" dur="3.1s" repeatCount="indefinite"/></rect>
    <rect x="118" y="360" width="14" height="115" rx="7" fill="#F6C85F"><animate attributeName="opacity" values=".8;.25;.8" dur="4s" repeatCount="indefinite"/></rect>
    <rect x="506" y="290" width="14" height="108" rx="7" fill="#A855F7"><animate attributeName="opacity" values=".2;.75;.2" dur="3.4s" repeatCount="indefinite"/></rect>
    <rect x="534" y="380" width="14" height="86" rx="7" fill="#F6C85F"><animate attributeName="opacity" values=".75;.25;.75" dur="3.8s" repeatCount="indefinite"/></rect>
  </g>
  <g transform="translate(64 70)" opacity="0.18" filter="url(#purpleGlow)">
    <path d="M76 0L146 40V126L76 166L6 126V40L76 0Z" stroke="#F6C85F" stroke-width="5"/>
    <text x="34" y="112" font-family="Arial, Helvetica, sans-serif" font-size="102" font-weight="900" fill="#F6C85F">₿</text>
  </g>

  <g filter="url(#shadow)">
    <animateTransform attributeName="transform" type="translate" values="0 0; 0 -8; 0 0" dur="5.5s" repeatCount="indefinite"/>

    <path d="M128 735C144 565 192 438 310 438C428 438 476 565 492 735H128Z" fill="url(#suit)"/>
    <path d="M310 436L238 742H382L310 436Z" fill="#F8F5FF"/>
    <path d="M286 482H334L350 735H270L286 482Z" fill="#080A16"/>
    <path d="M310 438L270 486L238 440L188 482L128 735H270L310 438Z" fill="#111A31"/>
    <path d="M310 438L350 486L382 440L432 482L492 735H350L310 438Z" fill="#0B1225"/>
    <path d="M188 482C242 518 274 590 296 735" stroke="#35415F" stroke-width="3" stroke-opacity="0.7"/>
    <path d="M432 482C378 518 346 590 324 735" stroke="#26304E" stroke-width="3" stroke-opacity="0.7"/>
    <path d="M232 445C250 475 275 497 310 513C345 497 370 475 388 445" stroke="#E7EAF5" stroke-width="6" stroke-linecap="round"/>

    <path d="M236 358C240 417 268 456 310 456C352 456 380 417 384 358H236Z" fill="#D99A78"/>
    <path d="M222 210C210 254 207 338 231 385C250 424 278 445 310 445C342 445 370 424 389 385C413 338 410 254 398 210C388 160 350 129 310 129C270 129 232 160 222 210Z" fill="url(#skin)"/>
    <ellipse cx="218" cy="297" rx="16" ry="33" fill="#D99A78"/>
    <ellipse cx="402" cy="297" rx="16" ry="33" fill="#D99A78"/>

    <path d="M215 210C216 153 260 111 318 113C370 115 406 150 416 205C389 176 352 160 306 165C268 168 239 184 215 210Z" fill="url(#hair)"/>
    <path d="M216 215C230 160 274 139 330 142C356 143 386 152 410 181C389 176 370 178 350 187C323 199 291 196 260 190C242 186 228 197 216 215Z" fill="#2B1A12"/>
    <path d="M225 206C239 180 258 161 289 150" stroke="#6B432B" stroke-width="8" stroke-linecap="round"/>
    <path d="M270 143C292 135 321 133 352 146" stroke="#6B432B" stroke-width="7" stroke-linecap="round"/>
    <path d="M337 151C363 160 385 177 400 201" stroke="#1A0F0A" stroke-width="7" stroke-linecap="round"/>

    <path d="M250 268C269 258 287 258 304 267" stroke="#4D2E20" stroke-width="8" stroke-linecap="round"/>
    <path d="M316 267C333 258 351 258 370 268" stroke="#4D2E20" stroke-width="8" stroke-linecap="round"/>
    <ellipse cx="278" cy="292" rx="13" ry="10" fill="#F8F5FF"/>
    <ellipse cx="342" cy="292" rx="13" ry="10" fill="#F8F5FF"/>
    <circle cx="278" cy="292" r="6" fill="#7A8C67"/>
    <circle cx="342" cy="292" r="6" fill="#7A8C67"/>
    <circle cx="280" cy="290" r="2" fill="#FFFFFF"/>
    <circle cx="344" cy="290" r="2" fill="#FFFFFF"/>
    <path d="M310 305C305 326 302 338 313 341" stroke="#B8755F" stroke-width="5" stroke-linecap="round"/>
    <path d="M278 367C299 385 329 385 350 367" stroke="#7A3D35" stroke-width="6" stroke-linecap="round"/>
    <path d="M284 361C304 371 326 371 346 361" stroke="#E9A48F" stroke-width="3" stroke-linecap="round" opacity="0.7"/>
    <circle cx="246" cy="334" r="16" fill="#E89682" opacity="0.35"/>
    <circle cx="374" cy="334" r="16" fill="#E89682" opacity="0.35"/>
  </g>

  <g transform="translate(410 115)" filter="url(#purpleGlow)">
    <circle cx="72" cy="72" r="52" fill="none" stroke="#A855F7" stroke-width="3" stroke-opacity="0.75">
      <animate attributeName="stroke-opacity" values="0.35;0.9;0.35" dur="4s" repeatCount="indefinite"/>
    </circle>
    <text x="42" y="96" font-family="Arial, Helvetica, sans-serif" font-size="72" font-weight="900" fill="url(#gold)">₿</text>
  </g>
</svg>
