<svg width="420" height="420" viewBox="0 0 420 420" fill="none" xmlns="http://www.w3.org/2000/svg" role="img" aria-labelledby="title desc">
  <title id="title">John Zarcaro Cryptocurrency Educator Logo</title>
  <desc id="desc">A purple shield, open book, and digital gold Bitcoin emblem representing cryptocurrency education and safety.</desc>
  <defs>
    <linearGradient id="gold" x1="88" y1="34" x2="335" y2="345" gradientUnits="userSpaceOnUse">
      <stop stop-color="#FFE9A6"/>
      <stop offset="0.34" stop-color="#F7C85C"/>
      <stop offset="0.68" stop-color="#C58B1B"/>
      <stop offset="1" stop-color="#FFF0B8"/>
    </linearGradient>
    <linearGradient id="purple" x1="69" y1="88" x2="364" y2="334" gradientUnits="userSpaceOnUse">
      <stop stop-color="#8B5CF6"/>
      <stop offset="0.45" stop-color="#5624A3"/>
      <stop offset="1" stop-color="#2A0B4D"/>
    </linearGradient>
    <radialGradient id="coinGlow" cx="0" cy="0" r="1" gradientUnits="userSpaceOnUse" gradientTransform="translate(210 128) rotate(90) scale(72)">
      <stop stop-color="#FFF4C8"/>
      <stop offset="0.52" stop-color="#F7C85C"/>
      <stop offset="1" stop-color="#9A6511"/>
    </radialGradient>
    <filter id="shadow" x="-20%" y="-20%" width="140%" height="140%" color-interpolation-filters="sRGB">
      <feDropShadow dx="0" dy="18" stdDeviation="18" flood-color="#10071F" flood-opacity="0.35"/>
    </filter>
  </defs>
  <rect width="420" height="420" rx="88" fill="#10071F"/>
  <path d="M210 39L329 90V182C329 256 281 319 210 352C139 319 91 256 91 182V90L210 39Z" fill="url(#purple)" stroke="url(#gold)" stroke-width="9" filter="url(#shadow)"/>
  <path d="M210 61L306 101V181C306 242 268 295 210 326C152 295 114 242 114 181V101L210 61Z" fill="#1A0C2A" stroke="#B995FF" stroke-width="4" opacity="0.92"/>
  <path d="M69 205C118 192 157 199 204 239V324C161 291 117 281 69 294V205Z" fill="url(#purple)" stroke="url(#gold)" stroke-width="7"/>
  <path d="M351 205C302 192 263 199 216 239V324C259 291 303 281 351 294V205Z" fill="url(#purple)" stroke="url(#gold)" stroke-width="7"/>
  <path d="M89 229C125 222 156 229 196 260" stroke="#EDE7FF" stroke-width="6" stroke-linecap="round"/>
  <path d="M331 229C295 222 264 229 224 260" stroke="#EDE7FF" stroke-width="6" stroke-linecap="round"/>
  <circle cx="210" cy="127" r="71" fill="url(#coinGlow)" stroke="#FFF2B5" stroke-width="6" filter="url(#shadow)"/>
  <circle cx="210" cy="127" r="54" fill="none" stroke="#7B4A00" stroke-width="4" opacity="0.55"/>
  <path d="M196 85V169M220 85V169M183 103H223C239 103 249 111 249 124C249 135 241 142 231 145C244 147 254 155 254 169C254 184 242 193 222 193H183M197 119H220C228 119 233 115 233 108C233 101 228 97 219 97H197M197 158H224C233 158 239 153 239 145C239 137 233 132 223 132H197" stroke="#10071F" stroke-width="10" stroke-linecap="round" stroke-linejoin="round"/>
  <path d="M196 85V169M220 85V169M183 103H223C239 103 249 111 249 124C249 135 241 142 231 145C244 147 254 155 254 169C254 184 242 193 222 193H183M197 119H220C228 119 233 115 233 108C233 101 228 97 219 97H197M197 158H224C233 158 239 153 239 145C239 137 233 132 223 132H197" stroke="#FFF6D4" stroke-width="4" stroke-linecap="round" stroke-linejoin="round"/>
  <path d="M210 321L194 304H226L210 321Z" fill="#F7C85C"/>
</svg>
